# xmcd
#
# Track frame offsets: 
#        150
#        16313
#        24595
#        38720
#        55300
#        62882
#        81259
#        97340
#        108668
#        121003
#        140563
#        156152
#        176079
#        194110
#
# Disc length: 2872 seconds
#
# Revision: 2
# Processed by: cddbd v1.5.2PL0 Copyright (c) Steve Scherf et al.
# Submitted via: ExactAudioCopyFreeDBPlugin 1.0
#
DISCID=ca0b360e
DTITLE=The Vaudevillian - Bringing Satan Down
DYEAR=2016
DGENRE=Ragtime
TTITLE0=Broom Shooter
TTITLE1=James Street Turnaround
TTITLE2=Sweet Honey Thighs
TTITLE3=Sail Away
TTITLE4=Dry Bone Shuffle
TTITLE5=Montreal to Memphis
TTITLE6=Banjo Blues
TTITLE7=Goin' to German
TTITLE8=Grind So Fine
TTITLE9=He's in the Jailhouse Now
TTITLE10=The Duck's Yas Yas Yas
TTITLE11=Viola Lee Blues - Spidernest Blues
TTITLE12=Bootlegger's Blues
TTITLE13=Bringing Satan Down
EXTD=https://thevaudevillian.bandcamp.com
EXTT0=
EXTT1=
EXTT2=
EXTT3=
EXTT4=
EXTT5=
EXTT6=
EXTT7=
EXTT8=
EXTT9=
EXTT10=
EXTT11=
EXTT12=
EXTT13=
PLAYORDER=
